<?xml version="1.0" encoding="utf-8"?>
<!-- Generator: Adobe Illustrator 23.0.1, SVG Export Plug-In . SVG Version: 6.00 Build 0)  -->
<svg version="1.1" id="Layer_1" xmlns="http://www.w3.org/2000/svg" xmlns:xlink="http://www.w3.org/1999/xlink" x="0px" y="0px"
	 viewBox="0 0 194.2 204.2" style="enable-background:new 0 0 194.2 204.2;" xml:space="preserve">
<style type="text/css">
	.st0{fill:none;stroke:#393C59;stroke-width:4;stroke-linecap:round;stroke-linejoin:round;stroke-miterlimit:10;}
	.st1{fill:#393C59;}
</style>
<polyline class="st0" points="52.9,161.1 2,161.1 2,2.1 122.5,2.1 122.5,40.5 "/>
<polyline class="st0" points="90.9,161.1 53.2,161.1 53.2,40.6 132.8,40.6 132.8,80.6 "/>
<rect x="80.9" y="91.1" transform="matrix(-1.836970e-16 1 -1 -1.836970e-16 242.0263 0.3813)" class="st0" width="79.8" height="60.2"/>
<g>
	<g>
		<path class="st1" d="M16.8,27.2L15.2,32h-4.4l7-20.7h5.6L30.8,32h-4.7l-1.7-4.8H16.8z M23.4,23.5c-1.5-4.4-2.4-7.2-2.9-9h0
			c-0.5,2-1.5,5.3-2.7,9H23.4z"/>
		<path class="st1" d="M32.4,17.3c0.3-2.4,2-5.4,6.9-5.4c4.6,0,6.6,2.6,6.6,5.4c0,2.4-1.4,3.5-2.4,4v0.1c1.3,0.5,3.2,1.7,3.2,4.8
			c0,2.9-1.7,6.2-7.4,6.2c-5.3,0-7.1-3.2-7.3-5.8h4.2c0.3,1.3,1.2,2.5,3.2,2.5c2,0,3-1.3,3-3c0-1.8-0.9-2.9-3.2-2.9h-1.8v-3.3h1.6
			c2,0,2.8-0.7,2.8-2.3c0-1.4-0.8-2.3-2.5-2.3c-2,0-2.5,1.1-2.7,2.1H32.4z"/>
	</g>
</g>
<g>
	<g>
		<path class="st1" d="M65.2,58.8L64.1,62h-2.9l4.7-13.8h3.7L74.5,62h-3.1l-1.1-3.2H65.2z M69.6,56.4c-1-2.9-1.6-4.8-1.9-6h0
			c-0.3,1.4-1,3.5-1.8,6H69.6z"/>
		<path class="st1" d="M81.3,62v-3h-6v-2.5l5.5-7.7H84v7.9h1.6L85.3,59H84v3H81.3z M81.3,54.4c0-1.4,0-2.2,0.1-3
			c-0.5,1.1-2.2,3.6-3.5,5.4h3.4V54.4z"/>
	</g>
</g>
<g>
	<g>
		<path class="st1" d="M99.6,95.2l-0.8,2.4h-2.2l3.5-10.3h2.8l3.7,10.3h-2.4l-0.9-2.4H99.6z M102.9,93.4c-0.7-2.2-1.2-3.6-1.5-4.5h0
			c-0.3,1-0.8,2.6-1.4,4.5H102.9z"/>
		<path class="st1" d="M114.2,89.5h-4c-0.1,0.5-0.2,1.5-0.3,1.9c0.4-0.3,0.9-0.5,1.8-0.5c1.9,0,3,1.4,3,3.3c0,1.9-1,3.7-3.7,3.7
			c-2,0-3.4-1-3.6-2.8h2.1c0.2,0.7,0.7,1.1,1.5,1.1c1,0,1.5-0.8,1.5-1.8c0-1-0.4-1.8-1.5-1.8c-0.9,0-1.3,0.4-1.5,1l-1.9-0.3
			c0.3-1.3,0.7-4.2,0.8-5.5h6L114.2,89.5z"/>
	</g>
</g>
</svg>
