<?xml version="1.0" encoding="utf-8"?>
<!-- Generator: Adobe Illustrator 23.0.1, SVG Export Plug-In . SVG Version: 6.00 Build 0)  -->
<svg version="1.1" id="Layer_1" xmlns="http://www.w3.org/2000/svg" xmlns:xlink="http://www.w3.org/1999/xlink" x="0px" y="0px"
	 viewBox="0 0 243.2 205.2" style="enable-background:new 0 0 243.2 205.2;" xml:space="preserve">
<style type="text/css">
	.st0{fill:none;stroke:#393C59;stroke-width:3;stroke-linecap:round;stroke-linejoin:round;stroke-miterlimit:10;}
	.st1{fill:none;stroke:#393C59;stroke-linecap:round;stroke-linejoin:round;stroke-miterlimit:10;}
	.st2{fill:none;stroke:#393C59;stroke-width:2;stroke-linecap:round;stroke-linejoin:round;stroke-miterlimit:10;}
	.st3{fill:#393C59;}
</style>
<polyline class="st0" points="2.4,49.5 2.4,2.3 186.8,2.3 186.8,106.3 2.4,106.3 2.4,49.5 "/>
<rect x="8.4" y="8.4" class="st0" width="172.1" height="91.4"/>
<polygon class="st1" points="24.7,27.6 24.7,81 73.2,81 73.2,59.3 97.7,59.6 97.7,67.5 119.8,67.5 119.8,27.6 "/>
<polyline class="st0" points="32.9,27.6 24.7,27.6 24.7,55.4 "/>
<polyline class="st0" points="24.7,70.2 24.7,81 34.6,81 "/>
<polyline class="st0" points="73.2,74.7 73.2,81 57.9,81 "/>
<line class="st0" x1="44.9" y1="27.6" x2="85.9" y2="27.6"/>
<polyline class="st0" points="95.5,27.6 119.8,27.6 119.8,39.1 "/>
<polyline class="st0" points="119.8,48.4 119.8,67.5 114.6,67.5 "/>
<polyline class="st0" points="103.2,67.5 97.7,67.5 97.7,59.6 80.2,59.3 73.2,59.3 73.2,67.4 "/>
<path class="st2" d="M44.6,81c0,0,1-9.9-9.4-9.9V81"/>
<rect x="135.7" y="11.8" class="st2" width="41.4" height="84.2"/>
<line class="st2" x1="135.7" y1="79.7" x2="177" y2="79.7"/>
<line class="st2" x1="135.7" y1="22.1" x2="177" y2="22.1"/>
<g>
	<g>
		<path class="st3" d="M8.7,133.4l-1.6,4.8H2.7l7-20.7h5.6l7.3,20.7H18l-1.7-4.8H8.7z M15.3,129.8c-1.5-4.4-2.4-7.2-2.9-9h0
			c-0.5,2-1.5,5.3-2.7,9H15.3z"/>
		<path class="st3" d="M39.5,128.2c0,5.4-1.7,10.4-7.6,10.4c-5.8,0-7.6-4.8-7.6-10.2c0-5.4,2-10.2,7.7-10.2
			C37.5,118.1,39.5,122.6,39.5,128.2z M28.7,128.3c0,3.6,0.4,6.9,3.2,6.9c2.7,0,3.1-3,3.1-6.9c0-3.8-0.5-6.7-3-6.7
			C29.5,121.5,28.7,124,28.7,128.3z"/>
	</g>
</g>
<g>
	<g>
		<path class="st3" d="M8.7,162.9l-1.6,4.8H2.7l7-20.7h5.6l7.3,20.7H18l-1.7-4.8H8.7z M15.3,159.2c-1.5-4.4-2.4-7.2-2.9-9h0
			c-0.5,2-1.5,5.3-2.7,9H15.3z"/>
		<path class="st3" d="M27.9,167.6v-14.8c-0.9,0.4-2.6,0.8-3.6,0.9v-3.2c1.9-0.3,3.8-1.4,4.9-2.6h3v19.8H27.9z"/>
	</g>
</g>
<g>
	<g>
		<path class="st3" d="M8.7,191l-1.6,4.8H2.7l7-20.7h5.6l7.3,20.7H18l-1.7-4.8H8.7z M15.3,187.3c-1.5-4.4-2.4-7.2-2.9-9h0
			c-0.5,2-1.5,5.3-2.7,9H15.3z"/>
		<path class="st3" d="M24.3,195.8v-0.3c0-3.4,1.5-6.2,5.8-9.3c2.8-2,3.6-2.7,3.6-4.5c0-1.7-0.8-2.7-2.5-2.7c-1.9,0-2.6,1.2-2.9,2.9
			h-4.1c0.3-3.4,2.5-6.2,7-6.2c5.1,0,6.8,3,6.8,6c0,2.9-1.2,4.3-4.9,6.8c-2.4,1.7-3.4,2.8-3.7,3.7h9.3l-0.5,3.6H24.3z"/>
	</g>
</g>
</svg>
