<?xml version="1.0" encoding="utf-8"?>
<!-- Generator: Adobe Illustrator 23.0.1, SVG Export Plug-In . SVG Version: 6.00 Build 0)  -->
<svg version="1.1" id="Layer_1" xmlns="http://www.w3.org/2000/svg" xmlns:xlink="http://www.w3.org/1999/xlink" x="0px" y="0px"
	 viewBox="0 0 194.2 204.2" style="enable-background:new 0 0 194.2 204.2;" xml:space="preserve">
<style type="text/css">
	.st0{fill:none;stroke:#393C59;stroke-width:4;stroke-linecap:round;stroke-linejoin:round;stroke-miterlimit:10;}
</style>
<path class="st0" d="M12.3,13.6"/>
<path class="st0" d="M14.8,120.1c0,0-8.5-19.8,1.2-36.6s36.5,5.7,43.1,20.1c6.6,14.3,11.3,36.1-6.8,43.2
	C34.3,153.8,14.8,120.1,14.8,120.1z"/>
<path class="st0" d="M28.5,115.7c0,0-8.5-19.8,1.2-36.6s37.5,0.7,44.1,15.2c6.6,14.3,10.2,41.1-7.8,48.1
	C48,149.4,28.5,115.7,28.5,115.7z"/>
<line class="st0" x1="38" y1="72.7" x2="19.1" y2="79.8"/>
<line class="st0" x1="69.9" y1="140.3" x2="47.7" y2="148"/>
<path class="st0" d="M15.4,122.4l-9.9,4.2c0,0,19.5,33.7,37.5,26.7l8.5-6.2"/>
<path class="st0" d="M64.9,128.8c-10.7-8-19-22.3-19-22.3s-4.3-10.1-3.3-21.9"/>
<path class="st0" d="M45.9,72.2c0.4-0.8,0.8-1.6,1.2-2.3c9.7-16.8,36.5,5.7,43.1,20.1c6.6,14.3,11.3,36.1-6.8,43.2
	c-2.5,1-5.1,1.2-7.6,0.8"/>
<path class="st0" d="M56.7,76.9c0.6-3.8,1.9-7.7,4.1-11.5c9.7-16.8,37.5,0.7,44.1,15.2c6.6,14.3,10.2,41.1-7.8,48.1
	c-6.2,2.4-12.6,0-18.3-4.2"/>
<line class="st0" x1="69.1" y1="59" x2="50.2" y2="66.1"/>
<line class="st0" x1="101" y1="126.6" x2="78.8" y2="134.3"/>
<path class="st0" d="M95.9,115.3c-10.7-8-19-22.3-19-22.3S72.6,82.9,73.7,71"/>
<path class="st0" d="M76.9,58.7c0.4-0.8,0.8-1.6,1.2-2.3c9.7-16.8,36.5,5.7,43.1,20.1c6.6,14.3,11.3,36.1-6.8,43.2
	c-2.5,1-5.1,1.2-7.6,0.8"/>
<path class="st0" d="M87.8,63.4c0.6-3.8,1.9-7.7,4.1-11.5c9.7-16.8,37.5,0.7,44.1,15.2c6.6,14.3,10.2,41.1-7.8,48.1
	c-6.2,2.4-12.6,0-18.3-4.2"/>
<line class="st0" x1="100.1" y1="45.5" x2="81.3" y2="52.7"/>
<line class="st0" x1="132.1" y1="113.1" x2="109.8" y2="120.8"/>
<path class="st0" d="M127,101.6c-10.7-8-19-22.3-19-22.3s-4.3-10.1-3.3-21.9"/>
<path class="st0" d="M108.8,45.4c0.4-0.8,0.8-1.6,1.2-2.3c9.7-16.8,36.5,5.7,43.1,20.1c6.6,14.3,11.3,36.1-6.8,43.2
	c-2.5,1-5.1,1.2-7.6,0.8"/>
<path class="st0" d="M119.7,49.7c0.6-3.8,1.9-7.7,4.1-11.5c9.7-16.8,37.5,0.7,44.1,15.2c6.6,14.3,10.2,41.1-7.8,48.1
	c-6.2,2.4-12.6,0-18.3-4.2"/>
<line class="st0" x1="132" y1="31.7" x2="113.2" y2="38.9"/>
<line class="st0" x1="163.9" y1="99.8" x2="141.7" y2="107.5"/>
</svg>
