<?xml version="1.0" encoding="utf-8"?>
<!-- Generator: Adobe Illustrator 23.0.1, SVG Export Plug-In . SVG Version: 6.00 Build 0)  -->
<svg version="1.1" id="Layer_1" xmlns="http://www.w3.org/2000/svg" xmlns:xlink="http://www.w3.org/1999/xlink" x="0px" y="0px"
	 viewBox="0 0 564 248.9" style="enable-background:new 0 0 564 248.9;" xml:space="preserve">
<style type="text/css">
	.st0{fill:none;stroke:#FFFFFF;stroke-width:4;stroke-linecap:round;stroke-linejoin:round;stroke-miterlimit:10;}
</style>
<path class="st0" d="M132.5,60.4"/>
<rect x="2.6" y="63.1" class="st0" width="124.1" height="158.6"/>
<polyline class="st0" points="23.7,63.1 23.7,36 147.7,36 147.7,194.5 126.7,194.5 "/>
<line class="st0" x1="21.5" y1="90.9" x2="107.8" y2="90.9"/>
<line class="st0" x1="21.5" y1="106.7" x2="83.9" y2="106.7"/>
<line class="st0" x1="21.5" y1="122.5" x2="107.8" y2="122.5"/>
<line class="st0" x1="21.5" y1="138.5" x2="107.8" y2="138.5"/>
<rect x="197.7" y="106.7" class="st0" width="124.1" height="115"/>
<line class="st0" x1="216.6" y1="106.7" x2="279" y2="106.7"/>
<line class="st0" x1="216.6" y1="122.5" x2="302.8" y2="122.5"/>
<line class="st0" x1="216.6" y1="138.5" x2="302.8" y2="138.5"/>
<polyline class="st0" points="309.7,36 347.2,36 347.2,106.7 171.7,106.7 171.7,36 209.7,36 "/>
<rect x="209.7" y="19.9" class="st0" width="100" height="41.9"/>
</svg>
