<?xml version="1.0" encoding="utf-8"?>
<!-- Generator: Adobe Illustrator 23.0.1, SVG Export Plug-In . SVG Version: 6.00 Build 0)  -->
<svg version="1.1" id="Layer_1" xmlns="http://www.w3.org/2000/svg" xmlns:xlink="http://www.w3.org/1999/xlink" x="0px" y="0px"
	 viewBox="0 0 564 248.9" style="enable-background:new 0 0 564 248.9;" xml:space="preserve">
<style type="text/css">
	.st0{display:none;}
	.st1{display:inline;fill:none;stroke:#000000;stroke-width:4;stroke-linecap:round;stroke-linejoin:round;stroke-miterlimit:10;}
	.st2{display:inline;fill:none;stroke:#000000;stroke-width:4;stroke-miterlimit:10;}
	.st3{display:inline;fill:none;stroke:#FFFFFF;stroke-width:4;stroke-linecap:round;stroke-linejoin:round;stroke-miterlimit:10;}
	.st4{fill:none;stroke:#FFFFFF;stroke-width:4;stroke-linecap:round;stroke-linejoin:round;stroke-miterlimit:10;}
</style>
<g class="st0">
	<path class="st1" d="M2,121.3v92.9c0,6.3,5.1,11.3,11.3,11.3h110.9c6.3,0,11.3-5.1,11.3-11.3v-92.9C135.5,121.3,2,121.3,2,121.3z"
		/>
	<polygon class="st1" points="2,121.3 5,110.4 132.6,110.4 135.6,121.3 	"/>
	<path class="st1" d="M5,110.4V55.9c0-6.3,5.1-11.3,11.3-11.3h52.5l15.9,15.9h36.5c6.3,0,11.3,5.1,11.3,11.3v38.6H5z"/>
	<path class="st1" d="M5.7,43.1l4.3-14c1-3.4,4.2-5.7,7.8-5.7h51.5"/>
	<path class="st1" d="M69.2,23.4L84,40.1h37c3,0,5.6,1.9,6.5,4.8L132,59"/>
	<path class="st2" d="M124,109.8H13.5V80.1c0-6.3,5.1-11.3,11.3-11.3h87.8c6.3,0,11.3,5.1,11.3,11.3L124,109.8L124,109.8z"/>
	<path class="st1" d="M117.9,200.8H19.1V151c0-6.3,5.1-11.3,11.3-11.3h76.1c6.3,0,11.3,5.1,11.3,11.3L117.9,200.8L117.9,200.8z"/>
	<rect x="150.8" y="121.3" class="st1" width="78.6" height="100.4"/>
	<polyline class="st1" points="164.2,121.3 164.2,104.1 242.7,104.1 242.7,204.5 229.4,204.5 	"/>
	<line class="st1" x1="162.8" y1="138.9" x2="217.4" y2="138.9"/>
	<line class="st1" x1="162.8" y1="148.9" x2="202.3" y2="148.9"/>
	<line class="st1" x1="162.8" y1="158.9" x2="217.4" y2="158.9"/>
	<line class="st1" x1="162.8" y1="169" x2="217.4" y2="169"/>
</g>
<g id="Layer_3" class="st0">
	<path class="st3" d="M46.2,62.1"/>
	<path class="st3" d="M2,84.4l7.2-9c2.4-2.9,5.9-4.7,9.7-4.7h367.6c3.8,0,7.3,1.7,9.7,4.7l7.2,9"/>
	<line class="st3" x1="64.6" y1="70.7" x2="61.3" y2="84.4"/>
	<line class="st3" x1="311.2" y1="70.7" x2="313.4" y2="84.4"/>
	<line class="st3" x1="61.3" y1="84.4" x2="61.3" y2="124.7"/>
	<line class="st3" x1="313.4" y1="84.4" x2="313.4" y2="98.4"/>
	<line class="st3" x1="61.3" y1="98.4" x2="313.4" y2="98.4"/>
	<line class="st3" x1="61.3" y1="110.1" x2="304.5" y2="110.1"/>
	<path class="st3" d="M13.3,71.5V35.9c0-6.9,5.6-12.5,12.5-12.5h55.9c6.9,0,12.5,5.6,12.5,12.5v33.8"/>
	<path class="st3" d="M77.4,23.4h13.3c6.6,0,12,5.4,12,12v35.3"/>
	<path class="st3" d="M66.3,125.6v23c0,6.9,5.6,12.5,12.5,12.5h216.6c3.5,0,6.6-1.4,8.9-3.7"/>
	<path class="st3" d="M304.8,204.6H58.7c-3.5,0-6.4-2.9-6.4-6.4l0,0c0-3.5,2.9-6.4,6.4-6.4h246.1"/>
	<polygon class="st3" points="23.9,187.2 20.5,225.4 50.8,225.4 53,187.2 	"/>
	<line class="st3" x1="20.5" y1="218.4" x2="304.5" y2="218.4"/>
	<line class="st3" x1="55.5" y1="124.7" x2="55.5" y2="190.7"/>
	<path class="st3" d="M64.6,125.9"/>
	<line class="st3" x1="69" y1="156.3" x2="69" y2="191.2"/>
	<path class="st3" d="M304.5,124.7h-290c-6.9,0-12.5-5.6-12.5-12.5V84.4h401.5v14"/>
	<polyline class="st3" points="304.5,156.7 304.5,98.4 532.2,98.4 532.2,226.8 304.5,226.8 304.5,156.7 	"/>
	<rect x="318.6" y="110.1" class="st3" width="77" height="104"/>
	<line class="st3" x1="409.4" y1="111.3" x2="517.9" y2="111.3"/>
	<line class="st3" x1="409.4" y1="125.6" x2="472.4" y2="125.6"/>
	<line class="st3" x1="409.4" y1="140.4" x2="492.5" y2="140.4"/>
	<line class="st3" x1="409.4" y1="154.7" x2="465.6" y2="154.7"/>
	<rect x="440.9" y="167.3" class="st3" width="77" height="46.8"/>
</g>
<rect x="2.5" y="28.9" class="st4" width="143" height="196.5"/>
<polyline class="st4" points="9.9,125.3 9.9,36.2 98.6,36.2 "/>
<line class="st4" x1="9.9" y1="175.6" x2="9.9" y2="141"/>
<polyline class="st4" points="138,104.4 138,218.3 24.3,218.3 "/>
<polyline class="st4" points="114.6,36.2 138,36.2 138,47.4 "/>
<line class="st4" x1="96.1" y1="55.7" x2="122" y2="55.7"/>
<line class="st4" x1="23.9" y1="55.7" x2="79.5" y2="55.7"/>
<line class="st4" x1="74.1" y1="77.3" x2="94.7" y2="77.3"/>
<line class="st4" x1="24.4" y1="77.3" x2="57.9" y2="77.3"/>
<line class="st4" x1="50.7" y1="100.1" x2="85.4" y2="100.1"/>
<line class="st4" x1="24.4" y1="100.1" x2="35.1" y2="100.1"/>
<line class="st4" x1="145.5" y1="39.9" x2="3" y2="182.6"/>
<line class="st4" x1="145.5" y1="97" x2="17.2" y2="225.4"/>
<line class="st4" x1="122" y1="28.9" x2="3.4" y2="147.5"/>
<line class="st4" x1="2.5" y1="132.7" x2="106.3" y2="28.9"/>
</svg>
