<?xml version="1.0" encoding="utf-8"?>
<!-- Generator: Adobe Illustrator 23.0.1, SVG Export Plug-In . SVG Version: 6.00 Build 0)  -->
<svg version="1.1" id="Layer_1" xmlns="http://www.w3.org/2000/svg" xmlns:xlink="http://www.w3.org/1999/xlink" x="0px" y="0px"
	 viewBox="0 0 564 248.9" style="enable-background:new 0 0 564 248.9;" xml:space="preserve">
<style type="text/css">
	.st0{fill:none;stroke:#FFFFFF;stroke-width:4;stroke-linecap:round;stroke-linejoin:round;stroke-miterlimit:10;}
	.st1{display:none;}
	.st2{display:inline;fill:none;stroke:#AD1515;stroke-width:4;stroke-linecap:round;stroke-linejoin:round;stroke-miterlimit:10;}
	.st3{fill:none;stroke:#FFFFFF;stroke-width:2;stroke-linecap:round;stroke-linejoin:round;stroke-miterlimit:10;}
</style>
<path class="st0" d="M46.2,62.1"/>
<path class="st0" d="M2,84.4l7.2-9c2.4-2.9,5.9-4.7,9.7-4.7h367.6c3.8,0,7.3,1.7,9.7,4.7l7.2,9"/>
<line class="st0" x1="64.6" y1="70.7" x2="61.3" y2="84.4"/>
<line class="st0" x1="311.2" y1="70.7" x2="313.4" y2="84.4"/>
<line class="st0" x1="61.3" y1="84.4" x2="61.3" y2="124.7"/>
<line class="st0" x1="313.4" y1="84.4" x2="313.4" y2="98.4"/>
<line class="st0" x1="61.3" y1="98.4" x2="313.4" y2="98.4"/>
<line class="st0" x1="61.3" y1="110.1" x2="255.5" y2="110.1"/>
<path class="st0" d="M13.3,71.5V35.9c0-6.9,5.6-12.5,12.5-12.5h55.9c6.9,0,12.5,5.6,12.5,12.5v33.8"/>
<path class="st0" d="M77.4,23.4h13.3c6.6,0,12,5.4,12,12v35.3"/>
<path class="st0" d="M66.3,125.6v23c0,6.9,5.6,12.5,12.5,12.5h176.7"/>
<path class="st0" d="M255.5,204.6H58.7c-3.5,0-6.4-2.9-6.4-6.4l0,0c0-3.5,2.9-6.4,6.4-6.4h196.8"/>
<polygon class="st0" points="23.9,187.2 20.5,225.4 50.8,225.4 53,187.2 "/>
<line class="st0" x1="20.5" y1="218.4" x2="255.5" y2="218.4"/>
<line class="st0" x1="55.5" y1="124.7" x2="55.5" y2="190.7"/>
<path class="st0" d="M64.6,125.9"/>
<line class="st0" x1="69" y1="156.3" x2="69" y2="191.2"/>
<path class="st0" d="M255.5,124.7h-241c-6.9,0-12.5-5.6-12.5-12.5V84.4h401.5v14"/>
<polyline class="st0" points="255.5,156.7 255.5,98.4 483.2,98.4 483.2,226.8 255.5,226.8 255.5,156.7 "/>
<g id="Layer_4" class="st1">
	
		<image style="display:inline;overflow:visible;enable-background:new    ;" width="160" height="323" xlink:href="open-door-1.jpg"  transform="matrix(1.5592 0 0 1.5592 657.9279 -114.3533)">
	</image>
	<path class="st2" d="M10.2,214.1v-7.5H354v7.5c0,6.3-5.1,11.3-11.3,11.3H21.5C15.2,225.4,10.2,220.3,10.2,214.1z"/>
	<polygon class="st2" points="10.2,206.6 2.2,170.8 362,170.8 354,206.6 	"/>
	<path class="st2" d="M2.2,170.8V144c0-6.3,5.1-11.3,11.3-11.3h337.1c6.3,0,11.3,5.1,11.3,11.3v26.8H2.2z"/>
	<path class="st2" d="M2.2,144v70.1c0,6.3,5.1,11.3,11.3,11.3h12.6"/>
	<path class="st2" d="M362,159.6V214c0,6.3-5.1,11.3-11.3,11.3h-18.4"/>
	<line class="st2" x1="31.7" y1="198.3" x2="289.8" y2="198.3"/>
	<rect x="398.1" y="51.6" class="st2" width="127.5" height="175.2"/>
</g>
<rect x="263" y="105.9" class="st0" width="212.5" height="112.9"/>
<polygon class="st3" points="283.1,129.6 283.1,195.6 342.9,195.6 342.9,168.8 373.2,169.1 373.2,178.9 400.5,178.9 400.5,129.6 "/>
<polyline class="st0" points="293.2,129.6 283.1,129.6 283.1,164 "/>
<polyline class="st0" points="283.1,182.2 283.1,195.6 295.3,195.6 "/>
<polyline class="st0" points="342.9,187.8 342.9,195.6 324,195.6 "/>
<line class="st0" x1="308" y1="129.6" x2="358.6" y2="129.6"/>
<polyline class="st0" points="370.5,129.6 400.5,129.6 400.5,143.8 "/>
<polyline class="st0" points="400.5,155.3 400.5,178.9 394.1,178.9 "/>
<polyline class="st0" points="380,178.9 373.2,178.9 373.2,169.1 351.6,168.8 342.9,168.8 342.9,178.8 "/>
<path class="st3" d="M307.6,195.6c0,0,1.2-12.2-11.6-12.2v12.2"/>
<rect x="420.1" y="110.1" class="st3" width="51.1" height="104"/>
<line class="st3" x1="420.1" y1="193.9" x2="471.1" y2="193.9"/>
<line class="st3" x1="420.1" y1="122.8" x2="471.1" y2="122.8"/>
</svg>
