<?xml version="1.0" encoding="utf-8"?>
<!-- Generator: Adobe Illustrator 23.0.1, SVG Export Plug-In . SVG Version: 6.00 Build 0)  -->
<svg version="1.1" id="Layer_1" xmlns="http://www.w3.org/2000/svg" xmlns:xlink="http://www.w3.org/1999/xlink" x="0px" y="0px"
	 viewBox="0 0 643 643" style="enable-background:new 0 0 643 643;" xml:space="preserve">
<style type="text/css">
	.st0{fill:none;stroke:#FFFFFF;stroke-width:15;stroke-miterlimit:10;}
	.st1{fill:none;stroke:#FFFFFF;stroke-width:15;stroke-linecap:round;stroke-linejoin:round;stroke-miterlimit:10;}
</style>
<circle class="st0" cx="321.5" cy="321.5" r="221.5"/>
<path class="st1" d="M504.3,359.5v11.8c0,12.5-10.1,22.5-22.5,22.5h-6.1c-3.2,0-5.7-2.2-6.3-5.4c-2.5-12-13.1-21-25.7-21
	s-23.3,9-25.7,21c-0.6,3-3.2,5.4-6.3,5.4H269.5c-3.2,0-5.7-2.2-6.3-5.4c-2.5-12-13.1-21-25.7-21c-12.8,0-23.3,9-25.7,21
	c-0.6,3-3.2,5.4-6.3,5.4h-0.3c-15.9,0-28.8-12.9-28.8-28.8v-96.9c0-15.9,12.9-28.8,28.8-28.8h191.5c7.7,0,15,3.9,19.1,10.6
	l36.9,59.3c1.6,2.5,3.6,4.7,6,6.5l36.1,25.7C500.9,345.3,504.3,352.3,504.3,359.5z"/>
<path class="st1" d="M264,393.9c0,14.5-11.8,26.3-26.3,26.3c-14.5,0-26.3-11.8-26.3-26.3s11.8-26.3,26.3-26.3
	C252.1,367.6,264,379.4,264,393.9z"/>
<path class="st1" d="M470,393.9c0,14.5-11.8,26.3-26.3,26.3c-14.5,0-26.3-11.8-26.3-26.3s11.8-26.3,26.3-26.3
	C458.3,367.6,470,379.4,470,393.9z"/>
<polyline class="st1" points="426.6,269.4 392.3,269.4 392.3,318.9 462.1,318.9 "/>
<line class="st1" x1="177.9" y1="269.4" x2="424.7" y2="269.4"/>
<polyline class="st1" points="501.2,353.4 487.6,353.4 487.6,368.4 504.3,368.4 "/>
<line class="st1" x1="172.5" y1="270.9" x2="105.8" y2="270.9"/>
<line class="st1" x1="171.9" y1="296.3" x2="101.4" y2="296.3"/>
<line class="st1" x1="171.9" y1="320.8" x2="109.6" y2="320.8"/>
<line class="st1" x1="176.3" y1="345.2" x2="128.6" y2="345.2"/>
<line class="st1" x1="176.3" y1="369.8" x2="145.6" y2="369.8"/>
</svg>
