<?xml version="1.0" encoding="utf-8"?>
<!-- Generator: Adobe Illustrator 23.0.1, SVG Export Plug-In . SVG Version: 6.00 Build 0)  -->
<svg version="1.1" xmlns="http://www.w3.org/2000/svg" xmlns:xlink="http://www.w3.org/1999/xlink" x="0px" y="0px"
	 viewBox="0 0 415.8 206.1" style="enable-background:new 0 0 415.8 206.1;" xml:space="preserve">
<style type="text/css">
	.st0{display:none;}
	.st1{fill:none;stroke:#FFFFFF;stroke-width:7;stroke-linecap:round;stroke-linejoin:round;stroke-miterlimit:10;}
</style>
<g id="Layer_1" class="st0">
</g>
<g id="Layer_2" class="st0">
</g>
<g id="Layer_3" class="st0">
</g>
<g id="Layer_4" class="st0">
</g>
<g id="Layer_5" class="st0">
</g>
<g id="Layer_6">
	<rect x="37.9" y="136.9" class="st1" width="55.9" height="33.9"/>
	<polyline class="st1" points="41.1,136.9 41.1,53.8 90.6,53.8 90.6,136.9 	"/>
	<path class="st1" d="M88.5,53.2H43.2c-1.9,0-3.4-1.5-3.4-3.4v0c0-1.9,1.5-3.4,3.4-3.4h45.4c1.9,0,3.4,1.5,3.4,3.4v0
		C92,51.7,90.4,53.2,88.5,53.2z"/>
	<path class="st1" d="M93.7,44.9H38c-2,0-3.5-1.6-3.5-3.5v0c0-2,1.6-3.5,3.5-3.5h55.7c2,0,3.5,1.6,3.5,3.5v0
		C97.2,43.3,95.6,44.9,93.7,44.9z"/>
	<path class="st1" d="M98,37H33.7c-1.6,0-2.9-1.3-2.9-2.9v0c0-1.6,1.3-2.9,2.9-2.9H98c1.6,0,2.9,1.3,2.9,2.9v0
		C100.9,35.7,99.6,37,98,37z"/>
	<path class="st1" d="M32.1,31.7c0,0,14.9-7.6,33.8-7.6s33.8,7.6,33.8,7.6"/>
	<line class="st1" x1="52.3" y1="66.9" x2="79.4" y2="66.9"/>
	<rect x="52.3" y="74.7" class="st1" width="27.1" height="19.1"/>
	<path class="st1" d="M379.5,132.4v7.5c0,7.9-6.4,14.3-14.3,14.3h-3.9c-2,0-3.6-1.4-4-3.4c-1.6-7.6-8.3-13.3-16.3-13.3
		c-8,0-14.8,5.7-16.3,13.3c-0.4,1.9-2,3.4-4,3.4h-90.2c-2,0-3.6-1.4-4-3.4c-1.6-7.6-8.3-13.3-16.3-13.3c-8.1,0-14.8,5.7-16.3,13.3
		c-0.4,1.9-2,3.4-4,3.4h-0.2c-10.1,0-18.3-8.2-18.3-18.3V74.4c0-10.1,8.2-18.3,18.3-18.3h121.5c4.9,0,9.5,2.5,12.1,6.7l23.4,37.6
		c1,1.6,2.3,3,3.8,4.1l22.9,16.3C377.3,123.4,379.5,127.8,379.5,132.4z"/>
	<path class="st1" d="M227,154.2c0,9.2-7.5,16.7-16.7,16.7c-9.2,0-16.7-7.5-16.7-16.7c0-9.2,7.5-16.7,16.7-16.7
		C219.5,137.5,227,145,227,154.2z"/>
	<path class="st1" d="M357.7,154.2c0,9.2-7.5,16.7-16.7,16.7c-9.2,0-16.7-7.5-16.7-16.7c0-9.2,7.5-16.7,16.7-16.7
		C350.3,137.5,357.7,145,357.7,154.2z"/>
	<polyline class="st1" points="330.2,75.2 308.4,75.2 308.4,106.6 352.7,106.6 	"/>
	<line class="st1" x1="172.4" y1="75.2" x2="329" y2="75.2"/>
	<polyline class="st1" points="377.5,128.5 368.9,128.5 368.9,138 379.5,138 	"/>
	<line class="st1" x1="162.6" y1="76.2" x2="101.1" y2="76.2"/>
	<line class="st1" x1="162.6" y1="92.3" x2="113.2" y2="92.3"/>
	<line class="st1" x1="162.6" y1="107.8" x2="129.1" y2="107.8"/>
	<line class="st1" x1="162.6" y1="123.3" x2="141.1" y2="123.3"/>
	<line class="st1" x1="162.6" y1="138.9" x2="151.9" y2="138.9"/>
</g>
</svg>
