<?xml version="1.0" encoding="utf-8"?>
<!-- Generator: Adobe Illustrator 23.0.1, SVG Export Plug-In . SVG Version: 6.00 Build 0)  -->
<svg version="1.1" id="Layer_1" xmlns="http://www.w3.org/2000/svg" xmlns:xlink="http://www.w3.org/1999/xlink" x="0px" y="0px"
	 viewBox="0 0 643 643" style="enable-background:new 0 0 643 643;" xml:space="preserve">
<style type="text/css">
	.st0{fill:none;stroke:#FFFFFF;stroke-width:15;stroke-miterlimit:10;}
	.st1{fill:none;stroke:#FFFFFF;stroke-width:15;stroke-linecap:round;stroke-linejoin:round;stroke-miterlimit:10;}
</style>
<circle class="st0" cx="321.5" cy="321.5" r="221.5"/>
<path class="st1" d="M321.5,496.5c0,0,43.4-28.6,57-38.8s51-52.7,51-52.7s9.1-13.3,12.8-23s2.6-30.6,2.6-30.6V196.5H198.2v154.8
	c0,0-1.1,21,2.6,30.6s12.8,23,12.8,23s37.4,42.5,51,52.7C278.1,467.8,321.5,496.5,321.5,496.5z"/>
<path class="st1" d="M349.6,219.2L218.9,349.9l-0.1,13.3c0,0-0.4,14.6,12.5,26.6l171.5-170.5L349.6,219.2z"/>
<line class="st1" x1="420.6" y1="256" x2="261.7" y2="414.9"/>
</svg>
